 Starte Tagesverarbeitung für 2025-10-19
Input #0, image2, from '/home/sha/timelapse/images/2025-10-19/*.jpg':
  Duration: 00:00:00.54, start: 0.000000, bitrate: N/A
  Stream #0:0: Video: mjpeg (Baseline), yuvj420p(pc, bt470bg/unknown/unknown), 4056x3040, 24 fps, 24 tbr, 24 tbn
Stream mapping:
  Stream #0:0 -> #0:0 (mjpeg (native) -> h264 (libx264))
Press [q] to stop, [?] for help
[swscaler @ 0x7f84012190] deprecated pixel format used, make sure you did set range correctly
[libx264 @ 0x55a4e78940] using cpu capabilities: ARMv8 NEON
[libx264 @ 0x55a4e78940] profile High, level 5.0, 4:2:0, 8-bit
[libx264 @ 0x55a4e78940] 264 - core 164 r3108 31e19f9 - H.264/MPEG-4 AVC codec - Copyleft 2003-2023 - http://www.videolan.org/x264.html - options: cabac=1 ref=1 deblock=1:0:0 analyse=0x3:0x113 me=hex subme=2 psy=1 psy_rd=1.00:0.00 mixed_ref=0 me_range=16 chroma_me=1 trellis=0 8x8dct=1 cqm=0 deadzone=21,11 fast_pskip=1 chroma_qp_offset=0 threads=6 lookahead_threads=2 sliced_threads=0 nr=0 decimate=1 interlaced=0 bluray_compat=0 constrained_intra=0 bframes=3 b_pyramid=2 b_adapt=1 b_bias=0 direct=1 weightb=1 open_gop=0 weightp=1 keyint=250 keyint_min=24 scenecut=40 intra_refresh=0 rc_lookahead=10 rc=crf mbtree=1 crf=20.0 qcomp=0.60 qpmin=0 qpmax=69 qpstep=4 ip_ratio=1.40 aq=1:1.00
Output #0, mp4, to '/home/sha/timelapse/videos/2025-10-19_ALL.mp4':
  Metadata:
    encoder         : Lavf61.7.100
  Stream #0:0: Video: h264 (avc1 / 0x31637661), yuv420p(pc, bt470bg/unknown/unknown, progressive), 1920x1440, q=2-31, 24 fps, 12288 tbn
      Metadata:
        encoder         : Lavc61.19.101 libx264
      Side data:
        cpb: bitrate max/min/avg: 0/0/0 buffer size: 0 vbv_delay: N/A
frame=    0 fps=0.0 q=0.0 size=       0KiB time=N/A bitrate=N/A speed=N/A    frame=    0 fps=0.0 q=0.0 size=       0KiB time=N/A bitrate=N/A speed=N/A    frame=    0 fps=0.0 q=0.0 size=       0KiB time=N/A bitrate=N/A speed=N/A    frame=    0 fps=0.0 q=0.0 size=       0KiB time=N/A bitrate=N/A speed=N/A    frame=    1 fps=0.4 q=25.0 size=       0KiB time=-00:00:00.04 bitrate=N/A speed=N/A    frame=    4 fps=1.3 q=25.0 size=     256KiB time=00:00:00.08 bitrate=25170.5kbits/s speed=0.0276x    frame=   10 fps=2.8 q=-1.0 size=     512KiB time=00:00:00.33 bitrate=12584.1kbits/s speed=0.0948x    [out#0/mp4 @ 0x55a4e796f0] video:1113KiB audio:0KiB subtitle:0KiB other streams:0KiB global headers:0KiB muxing overhead: 0.090641%
frame=   13 fps=3.6 q=-1.0 Lsize=    1114KiB time=00:00:00.45 bitrate=19910.3kbits/s speed=0.126x    
[libx264 @ 0x55a4e78940] frame I:1     Avg QP:21.24  size:119187
[libx264 @ 0x55a4e78940] frame P:4     Avg QP:21.22  size:100444
[libx264 @ 0x55a4e78940] frame B:8     Avg QP:21.20  size: 77251
[libx264 @ 0x55a4e78940] consecutive B-frames:  7.7% 30.8%  0.0% 61.5%
[libx264 @ 0x55a4e78940] mb I  I16..4: 44.1% 54.6%  1.3%
[libx264 @ 0x55a4e78940] mb P  I16..4: 44.8% 48.2%  0.5%  P16..4:  4.2%  0.9%  0.3%  0.0%  0.0%    skip: 1.0%
[libx264 @ 0x55a4e78940] mb B  I16..4: 25.8% 31.1%  0.1%  B16..8:  8.7%  1.5%  0.0%  direct:12.4%  skip:20.3%  L0:39.2% L1:48.5% BI:12.3%
[libx264 @ 0x55a4e78940] 8x8 transform intra:53.4% inter:31.8%
[libx264 @ 0x55a4e78940] coded y,uvDC,uvAC intra: 81.9% 40.6% 2.7% inter: 12.8% 35.6% 0.3%
[libx264 @ 0x55a4e78940] i16 v,h,dc,p: 16% 10% 54% 20%
[libx264 @ 0x55a4e78940] i8 v,h,dc,ddl,ddr,vr,hd,vl,hu:  7%  9% 55%  3%  7%  4%  5%  4%  5%
[libx264 @ 0x55a4e78940] i4 v,h,dc,ddl,ddr,vr,hd,vl,hu: 15% 21% 18%  5%  9%  8% 10%  6%  8%
[libx264 @ 0x55a4e78940] i8c dc,h,v,p: 56% 19% 19%  6%
[libx264 @ 0x55a4e78940] Weighted P-Frames: Y:0.0% UV:0.0%
[libx264 @ 0x55a4e78940] kb/s:16821.72
Tagesvideo erstellt: /home/sha/timelapse/videos/2025-10-19_ALL.mp4
Keine Bilder für Stunde 09 am 2025-10-19.
Keine Bilder für Stunde 12 am 2025-10-19.
Keine Bilder für Stunde 17 am 2025-10-19.
/home/sha/timelapse/images/2025-10-19/2025-10-19_21-51-48.jpg
/home/sha/timelapse/images/2025-10-19/2025-10-19_21-57-08.jpg
/home/sha/timelapse/images/2025-10-19/2025-10-19_22-32-15.jpg
/home/sha/timelapse/images/2025-10-19/2025-10-19_20-38-27.jpg
/home/sha/timelapse/images/2025-10-19/2025-10-19_22-18-38.jpg
/home/sha/timelapse/images/2025-10-19/2025-10-19_20-41-48.jpg
/home/sha/timelapse/images/2025-10-19/2025-10-19_22-07-48.jpg
/home/sha/timelapse/images/2025-10-19/2025-10-19_22-02-28.jpg
/home/sha/timelapse/images/2025-10-19/2025-10-19_22-27-51.jpg
/home/sha/timelapse/images/2025-10-19/2025-10-19_21-43-30.jpg
/home/sha/timelapse/images/2025-10-19/2025-10-19_21-46-17.jpg
/home/sha/timelapse/images/2025-10-19/2025-10-19_22-23-48.jpg
/home/sha/timelapse/images/2025-10-19/2025-10-19_22-13-18.jpg
 Fertig für 2025-10-19
 Starte Tagesverarbeitung für 2025-10-19
Input #0, image2, from '/home/sha/timelapse/images/2025-10-19/*.jpg':
  Duration: 00:00:00.67, start: 0.000000, bitrate: N/A
  Stream #0:0: Video: mjpeg (Baseline), yuvj420p(pc, bt470bg/unknown/unknown), 4056x3040, 24 fps, 24 tbr, 24 tbn
Stream mapping:
  Stream #0:0 -> #0:0 (mjpeg (native) -> h264 (libx264))
Press [q] to stop, [?] for help
[swscaler @ 0x7f9c012190] deprecated pixel format used, make sure you did set range correctly
[libx264 @ 0x55980e0940] using cpu capabilities: ARMv8 NEON
[libx264 @ 0x55980e0940] profile High, level 5.0, 4:2:0, 8-bit
[libx264 @ 0x55980e0940] 264 - core 164 r3108 31e19f9 - H.264/MPEG-4 AVC codec - Copyleft 2003-2023 - http://www.videolan.org/x264.html - options: cabac=1 ref=1 deblock=1:0:0 analyse=0x3:0x113 me=hex subme=2 psy=1 psy_rd=1.00:0.00 mixed_ref=0 me_range=16 chroma_me=1 trellis=0 8x8dct=1 cqm=0 deadzone=21,11 fast_pskip=1 chroma_qp_offset=0 threads=6 lookahead_threads=2 sliced_threads=0 nr=0 decimate=1 interlaced=0 bluray_compat=0 constrained_intra=0 bframes=3 b_pyramid=2 b_adapt=1 b_bias=0 direct=1 weightb=1 open_gop=0 weightp=1 keyint=250 keyint_min=24 scenecut=40 intra_refresh=0 rc_lookahead=10 rc=crf mbtree=1 crf=20.0 qcomp=0.60 qpmin=0 qpmax=69 qpstep=4 ip_ratio=1.40 aq=1:1.00
Output #0, mp4, to '/home/sha/timelapse/videos/2025-10-19_ALL.mp4':
  Metadata:
    encoder         : Lavf61.7.100
  Stream #0:0: Video: h264 (avc1 / 0x31637661), yuv420p(pc, bt470bg/unknown/unknown, progressive), 1920x1440, q=2-31, 24 fps, 12288 tbn
      Metadata:
        encoder         : Lavc61.19.101 libx264
      Side data:
        cpb: bitrate max/min/avg: 0/0/0 buffer size: 0 vbv_delay: N/A
frame=    0 fps=0.0 q=0.0 size=       0KiB time=N/A bitrate=N/A speed=N/A    frame=    0 fps=0.0 q=0.0 size=       0KiB time=N/A bitrate=N/A speed=N/A    frame=    0 fps=0.0 q=0.0 size=       0KiB time=N/A bitrate=N/A speed=N/A    frame=    0 fps=0.0 q=0.0 size=       0KiB time=N/A bitrate=N/A speed=N/A    frame=    0 fps=0.0 q=0.0 size=       0KiB time=N/A bitrate=N/A speed=N/A    frame=    2 fps=0.7 q=25.0 size=       0KiB time=00:00:00.00 bitrate=N/A speed=   0x    frame=    8 fps=2.3 q=25.0 size=     512KiB time=00:00:00.25 bitrate=16778.8kbits/s speed=0.0712x    frame=   14 fps=3.5 q=-1.0 size=    1024KiB time=00:00:00.50 bitrate=16778.0kbits/s speed=0.125x    [out#0/mp4 @ 0x55980e17e0] video:1573KiB audio:0KiB subtitle:0KiB other streams:0KiB global headers:0KiB muxing overhead: 0.065863%
frame=   16 fps=3.7 q=-1.0 Lsize=    1574KiB time=00:00:00.58 bitrate=22107.2kbits/s speed=0.137x    
[libx264 @ 0x55980e0940] frame I:1     Avg QP:21.37  size:115317
[libx264 @ 0x55980e0940] frame P:5     Avg QP:21.26  size:106162
[libx264 @ 0x55980e0940] frame B:10    Avg QP:21.34  size: 96411
[libx264 @ 0x55980e0940] consecutive B-frames: 12.5% 12.5%  0.0% 75.0%
[libx264 @ 0x55980e0940] mb I  I16..4: 44.5% 54.2%  1.3%
[libx264 @ 0x55980e0940] mb P  I16..4: 41.7% 46.4%  0.2%  P16..4:  7.2%  1.4%  0.3%  0.0%  0.0%    skip: 2.9%
[libx264 @ 0x55980e0940] mb B  I16..4: 31.9% 33.6%  0.1%  B16..8: 12.9%  2.4%  0.0%  direct:10.8%  skip: 8.2%  L0:40.2% L1:47.2% BI:12.7%
[libx264 @ 0x55980e0940] 8x8 transform intra:52.0% inter:27.3%
[libx264 @ 0x55980e0940] coded y,uvDC,uvAC intra: 87.5% 40.3% 1.6% inter: 21.5% 38.5% 0.2%
[libx264 @ 0x55980e0940] i16 v,h,dc,p:  9%  7% 65% 19%
[libx264 @ 0x55980e0940] i8 v,h,dc,ddl,ddr,vr,hd,vl,hu:  7%  8% 59%  3%  7%  4%  5%  4%  4%
[libx264 @ 0x55980e0940] i4 v,h,dc,ddl,ddr,vr,hd,vl,hu: 17% 20% 15%  6%  9%  8% 10%  6% 10%
[libx264 @ 0x55980e0940] i8c dc,h,v,p: 57% 18% 21%  4%
[libx264 @ 0x55980e0940] Weighted P-Frames: Y:0.0% UV:0.0%
[libx264 @ 0x55980e0940] kb/s:19322.83
Tagesvideo erstellt: /home/sha/timelapse/videos/2025-10-19_ALL.mp4
Keine Bilder für Stunde 09 am 2025-10-19.
Keine Bilder für Stunde 12 am 2025-10-19.
Keine Bilder für Stunde 17 am 2025-10-19.
/home/sha/timelapse/images/2025-10-19/2025-10-19_22-58-18.jpg
/home/sha/timelapse/images/2025-10-19/2025-10-19_22-42-28.jpg
/home/sha/timelapse/images/2025-10-19/2025-10-19_23-19-36.jpg
/home/sha/timelapse/images/2025-10-19/2025-10-19_23-55-48.jpg
/home/sha/timelapse/images/2025-10-19/2025-10-19_23-29-48.jpg
/home/sha/timelapse/images/2025-10-19/2025-10-19_23-40-15.jpg
/home/sha/timelapse/images/2025-10-19/2025-10-19_23-14-08.jpg
/home/sha/timelapse/images/2025-10-19/2025-10-19_23-08-48.jpg
/home/sha/timelapse/images/2025-10-19/2025-10-19_23-35-08.jpg
/home/sha/timelapse/images/2025-10-19/2025-10-19_22-53-09.jpg
/home/sha/timelapse/images/2025-10-19/2025-10-19_23-24-38.jpg
/home/sha/timelapse/images/2025-10-19/2025-10-19_22-37-18.jpg
/home/sha/timelapse/images/2025-10-19/2025-10-19_23-03-38.jpg
/home/sha/timelapse/images/2025-10-19/2025-10-19_22-47-48.jpg
/home/sha/timelapse/images/2025-10-19/2025-10-19_23-50-38.jpg
/home/sha/timelapse/images/2025-10-19/2025-10-19_23-45-18.jpg
 Fertig für 2025-10-19
